<svg xmlns="http://www.w3.org/2000/svg" viewBox="0 0 512 512">
  <defs>
    <linearGradient id="g" x1="0%" y1="0%" x2="100%" y2="100%">
      <stop offset="0%" stop-color="#4caf50"/>
      <stop offset="100%" stop-color="#2e7d32"/>
    </linearGradient>
  </defs>
  <rect width="512" height="512" rx="64" fill="#050a07"/>
  <g fill="url(#g)">
    <!-- Stylized LS monogram with leaf accent -->
    <path d="M120 120 L120 340 L260 340 L260 300 L170 300 L170 120 Z"/>
    <path d="M280 170 Q280 120 330 120 L390 120 L390 160 L340 160 Q320 160 320 180 L320 220 L380 220 L380 260 L320 260 L320 300 Q320 320 340 320 L390 320 L390 360 L330 360 Q280 360 280 310 L280 250 Q280 230 300 220 Q280 210 280 190 Z"/>
    <!-- Leaf accent -->
    <path d="M400 80 Q440 120 420 180 Q400 140 360 130 Q400 110 400 80 Z" opacity="0.8"/>
  </g>
</svg>
